<svg xmlns="http://www.w3.org/2000/svg" width="24" height="24" viewBox="0 0 24 24">
    <g fill="none" fill-rule="nonzero">
        <path fill="none" d="M0 0h24v24H0z"/>
        <path fill="#6C727C" d="M20.5 5.5c0 .825-.675 1.5-1.5 1.5H5c-.825 0-1.5-.675-1.5-1.5S4.175 4 5 4h14c.825 0 1.5.675 1.5 1.5zm0 6.5c0 .825-.675 1.5-1.5 1.5H5c-.825 0-1.5-.675-1.5-1.5s.675-1.5 1.5-1.5h14c.825 0 1.5.675 1.5 1.5zm0 6.5c0 .825-.675 1.5-1.5 1.5H5c-.825 0-1.5-.675-1.5-1.5S4.175 17 5 17h14c.825 0 1.5.675 1.5 1.5z"/>
    </g>
</svg>
