<svg xmlns="http://www.w3.org/2000/svg" width="24" height="24" viewBox="0 0 24 24">
    <g fill="none" fill-rule="evenodd">
        <path fill-rule="nonzero" d="M0 0h24v24H0z"/>
        <path fill="#6C727C" d="M19 15v-4c0-3.18-2.11-5.85-5-6.71-.01 0-.01-.01-.02-.01.01-.09.02-.18.02-.28 0-1.1-.9-2-2-2a2.006 2.006 0 0 0-1.98 2.28c-.01 0-.01.01-.02.01-2.89.86-5 3.53-5 6.71v4c0 1.1-.9 2-2 2v1.24c.65.28 1.32.51 2 .72.05.02.1.03.16.04 1.558.467 3.179.771 4.849.911-.001.03-.009.058-.009.089a2 2 0 0 0 4 0c0-.031-.008-.059-.009-.089A23.761 23.761 0 0 0 18.85 19c.05-.01.1-.03.15-.04.68-.21 1.35-.44 2-.72V17c-1.1 0-2-.9-2-2"/>
    </g>
</svg>
