<svg xmlns="http://www.w3.org/2000/svg" width="24" height="24" viewBox="0 0 24 24">
    <g fill="none" fill-rule="evenodd">
        <path d="M0 0h24v24H0z"/>
        <path fill="#9FA6B0" d="M17.333 7.333c.734 0 1.334.6 1.334 1.334v8c0 .733-.6 1.333-1.334 1.333H6.667c-.734 0-1.334-.6-1.334-1.333v-8c0-.734.6-1.334 1.334-1.334h2l.82-.9C9.74 6.16 10.1 6 10.473 6h3.054c.373 0 .733.16.98.433l.826.9h2zM12 16a3.333 3.333 0 1 0 .001-6.666A3.333 3.333 0 0 0 12 16zm2-3.333a2 2 0 1 1-4 0 2 2 0 0 1 4 0z"/>
    </g>
</svg>
