<svg xmlns="http://www.w3.org/2000/svg" width="24" height="24" viewBox="0 0 24 24">
    <g fill="none" fill-rule="evenodd">
        <path fill-rule="nonzero" d="M0 0h24v24H0z"/>
        <path fill="#9FA6B0" d="M15.293 14.023c.389.39.421.992.072 1.343-.349.348-.953.316-1.343-.072L12 13.27l-2.022 2.024c-.39.387-.994.42-1.343.072-.349-.35-.317-.954.072-1.343L10.731 12 8.707 9.977c-.389-.39-.421-.992-.072-1.343.349-.348.953-.316 1.343.073L12 10.73l2.022-2.023c.39-.389.994-.42 1.343-.073.349.35.317.954-.072 1.343l-2.023 2.024 2.023 2.022zM12 5a7 7 0 1 0 0 14 7 7 0 0 0 0-14z"/>
    </g>
</svg>
