<svg width="12" height="12" viewBox="0 0 12 12" fill="none" xmlns="http://www.w3.org/2000/svg">
<path d="M7.33333 5.99999L11.0293 2.30399C11.418 1.91533 11.436 1.29666 11.0693 0.93066C10.7033 0.563993 10.0847 0.581993 9.69599 0.97066L5.99999 4.66666L2.30399 0.97066C1.91533 0.581993 1.29666 0.563993 0.93066 0.93066C0.563993 1.29666 0.581993 1.91533 0.97066 2.30399L4.66666 5.99999L0.97066 9.69599C0.581993 10.0847 0.563993 10.7033 0.93066 11.0693C1.29666 11.436 1.91533 11.418 2.30399 11.0293L5.99999 7.33333L9.69599 11.0293C10.0847 11.418 10.7033 11.436 11.0693 11.0693C11.436 10.7033 11.418 10.0847 11.0293 9.69599L7.33333 5.99999Z" fill="#6C727C"/>
</svg>
