<?xml version="1.0" encoding="UTF-8"?>
<svg width="18px" height="18px" viewBox="0 0 18 18" version="1.1" xmlns="http://www.w3.org/2000/svg" xmlns:xlink="http://www.w3.org/1999/xlink">
    <!-- Generator: Sketch 53 (72520) - https://sketchapp.com -->
    <title>Group 11 Copy</title>
    <desc>Created with Sketch.</desc>
    <defs>
        <rect id="path-1" x="0" y="0" width="18" height="18" rx="4"></rect>
        <linearGradient x1="50%" y1="-2.48949813e-15%" x2="50%" y2="100%" id="linearGradient-3">
            <stop stop-color="#FFFFFF" offset="0%"></stop>
            <stop stop-color="#FFFFFF" stop-opacity="0" offset="100%"></stop>
        </linearGradient>
    </defs>
    <g id="---&gt;-Bottom-Navigation" stroke="none" stroke-width="1" fill="none" fill-rule="evenodd">
        <g id="Compositions/Bottom-Navigation/With-Dot-&amp;-Counter" transform="translate(-87.000000, -11.000000)">
            <g id="Navigation-Bar">
                <g id="feed" transform="translate(64.000000, 0.000000)">
                    <g id="Group" transform="translate(20.000000, 8.000000)">
                        <g id="Group-11-Copy" transform="translate(3.000000, 3.000000)">
                            <g id="Oval-3-Copy">
                                <mask id="mask-2" fill="white">
                                    <use xlink:href="#path-1"></use>
                                </mask>
                                <use id="Mask" fill="#B5BBC5" fill-rule="nonzero" xlink:href="#path-1"></use>
                                <circle fill="url(#linearGradient-3)" mask="url(#mask-2)" cx="-4" cy="-4" r="20"></circle>
                            </g>
                            <path d="M5,3.5 C5,4.328 4.328,5 3.5,5 C2.672,5 2,4.328 2,3.5 C2,2.672 2.672,2 3.5,2 C4.328,2 5,2.672 5,3.5" id="Fill-7" fill="#FFFFFF"></path>
                            <path d="M4,14 L14,14 C14.5522847,14 15,14.4477153 15,15 L15,15 C15,15.5522847 14.5522847,16 14,16 L4,16 C3.44771525,16 3,15.5522847 3,15 L3,15 C3,14.4477153 3.44771525,14 4,14 Z" id="Rectangle" fill="#FFFFFF" fill-rule="nonzero"></path>
                            <path d="M12.5557,5.7109 C12.1527,5.1759 11.4867,5.1699 11.0757,5.6989 L8.9137,8.4819 C8.5027,9.0109 7.8157,9.0229 7.3877,8.5069 L6.3387,7.2439 C5.9097,6.7279 5.2227,6.7379 4.8107,7.2679 L2.6527,10.0379 C2.2407,10.5669 2.4517,10.9999 3.1217,10.9999 L15.3117,10.9999 C15.9817,10.9999 16.2017,10.5619 15.7977,10.0249 L12.5557,5.7109 Z" id="Fill-9" fill="#FFFFFF"></path>
                        </g>
                    </g>
                </g>
            </g>
        </g>
    </g>
</svg>