<svg width="22" height="19" xmlns="http://www.w3.org/2000/svg" xmlns:xlink="http://www.w3.org/1999/xlink"><defs><path d="M11.005 4a5.003 5.003 0 0 1 5.002 5c0 .65-.13 1.26-.36 1.83l2.921 2.92A11.817 11.817 0 0 0 22 9c-1.73-4.39-6.003-7.5-11.005-7.5-1.4 0-2.741.25-3.982.7l2.161 2.16c.57-.23 1.18-.36 1.831-.36zM1 1.27l2.281 2.28.46.46A11.805 11.805 0 0 0 0 9c1.73 4.39 6.003 7.5 11.005 7.5 1.55 0 3.031-.3 4.382-.84l.42.42L18.74 19l1.27-1.27L2.271 0l-1.27 1.27zM6.533 6.8l1.55 1.55c-.05.21-.08.43-.08.65 0 1.66 1.341 3 3.002 3 .22 0 .44-.03.65-.08l1.551 1.55c-.67.33-1.41.53-2.201.53a5.003 5.003 0 0 1-5.002-5c0-.79.2-1.53.53-2.2zm4.312-.78l3.151 3.15.02-.16c0-1.66-1.34-3-3.001-3l-.17.01z" id="a"/></defs><g fill="none" fill-rule="evenodd"><path d="M-1-3h24v24H-1z"/><g><mask id="b" fill="#fff"><use xlink:href="#a"/></mask><use fill="#9FA6B0" xlink:href="#a"/><g mask="url(#b)" fill="#9FA6B0"><path d="M-1-3h24v24H-1z"/></g></g></g></svg>