<?xml version="1.0" encoding="UTF-8"?>
<svg width="12px" height="12px" viewBox="0 0 12 12" version="1.1" xmlns="http://www.w3.org/2000/svg" xmlns:xlink="http://www.w3.org/1999/xlink">
    <!-- Generator: Sketch 53.2 (72643) - https://sketchapp.com -->
    <title>Fill 1</title>
    <desc>Created with Sketch.</desc>
    <g id="system-icon" stroke="none" stroke-width="1" fill="none" fill-rule="evenodd">
        <g id="System-Icons/Navigation/Close/Primary/16px" transform="translate(-6.000000, -6.000000)" fill="#9FA6B0">
            <g id="Group" transform="translate(4.000000, 4.000000)">
                <path d="M9.33333333,8 L13.0293333,4.304 C13.418,3.91533333 13.436,3.29666667 13.0693333,2.93066667 C12.7033333,2.564 12.0846667,2.582 11.696,2.97066667 L8,6.66666667 L4.304,2.97066667 C3.91533333,2.582 3.29666667,2.564 2.93066667,2.93066667 C2.564,3.29666667 2.582,3.91533333 2.97066667,4.304 L6.66666667,8 L2.97066667,11.696 C2.582,12.0846667 2.564,12.7033333 2.93066667,13.0693333 C3.29666667,13.436 3.91533333,13.418 4.304,13.0293333 L8,9.33333333 L11.696,13.0293333 C12.0846667,13.418 12.7033333,13.436 13.0693333,13.0693333 C13.436,12.7033333 13.418,12.0846667 13.0293333,11.696 L9.33333333,8 Z" id="Fill-1"></path>
            </g>
        </g>
    </g>
</svg>