<svg width="22" height="16" xmlns="http://www.w3.org/2000/svg" xmlns:xlink="http://www.w3.org/1999/xlink"><defs><path d="M11 5C9.34 5 8 6.34 8 8s1.34 3 3 3 3-1.34 3-3-1.34-3-3-3m0 8c-2.76 0-5-2.24-5-5s2.24-5 5-5 5 2.24 5 5-2.24 5-5 5M11 .5C6 .5 1.73 3.61 0 8c1.73 4.39 6 7.5 11 7.5s9.27-3.11 11-7.5C20.27 3.61 16 .5 11 .5" id="a"/></defs><g fill="none" fill-rule="evenodd"><path d="M-1-4h24v24H-1z"/><g><mask id="b" fill="#fff"><use xlink:href="#a"/></mask><use fill="#9FA6B0" xlink:href="#a"/><g mask="url(#b)" fill="#9FA6B0"><path d="M-1-4h24v24H-1z"/></g></g></g></svg>