<?xml version="1.0" encoding="UTF-8"?>
<svg width="24px" height="39px" viewBox="0 0 24 39" version="1.1" xmlns="http://www.w3.org/2000/svg" xmlns:xlink="http://www.w3.org/1999/xlink">
    <!-- Generator: Sketch 51.1 (57501) - http://www.bohemiancoding.com/sketch -->
    <title>iphone</title>
    <desc>Created with Sketch.</desc>
    <defs></defs>
    <g id="Drawer" stroke="none" stroke-width="1" fill="none" fill-rule="evenodd">
        <g id="[UNIFY-Project]-New-Drawer---BEFORE-LOGIN-Cancel" transform="translate(-147.000000, -486.000000)">
            <g id="Login-with" transform="translate(16.000000, 434.000000)">
                <g id="Yahoo" transform="translate(99.000000, 28.000000)">
                    <g id="iphone" transform="translate(32.000000, 24.000000)">
                        <path d="M15.1666667,4.33333333 L8.66666667,4.33333333 C7.475,4.33333333 6.5,3.35833333 6.5,2.16666667 L5.41666667,2.16666667 C3.62916667,2.16666667 2.16666667,3.62916667 2.16666667,5.41666667 L2.16666667,33.5833333 C2.16666667,35.3708333 3.62916667,36.8333333 5.41666667,36.8333333 L18.4166667,36.8333333 C20.2041667,36.8333333 21.6666667,35.3708333 21.6666667,33.5833333 L21.6666667,5.41666667 C21.6666667,3.62916667 20.2041667,2.16666667 18.4166667,2.16666667 L17.3333333,2.16666667 C17.3333333,3.35833333 16.3583333,4.33333333 15.1666667,4.33333333" id="Fill-1" fill="#6CD3FF"></path>
                        <path d="M21.6666667,33.5833333 C21.6666667,35.3708333 20.2041667,36.8333333 18.4166667,36.8333333 L5.41666667,36.8333333 C3.62916667,36.8333333 2.16666667,35.3708333 2.16666667,33.5833333 L2.16666667,5.41666667 C2.16666667,3.62916667 3.62916667,2.16666667 5.41666667,2.16666667 L6.5,2.16666667 C6.5,3.35833333 7.475,4.33333333 8.66666667,4.33333333 L15.1666667,4.33333333 C16.3583333,4.33333333 17.3333333,3.35833333 17.3333333,2.16666667 L18.4166667,2.16666667 C20.2041667,2.16666667 21.6666667,3.62916667 21.6666667,5.41666667 L21.6666667,33.5833333 Z M19.5,0 L15.1666667,0 L8.66666667,0 L4.33333333,0 C1.95,0 0,1.95 0,4.33333333 L0,34.6666667 C0,37.05 1.95,39 4.33333333,39 L19.5,39 C21.8833333,39 23.8333333,37.05 23.8333333,34.6666667 L23.8333333,4.33333333 C23.8333333,1.95 21.8833333,0 19.5,0 Z" id="Fill-3" fill="#42B549"></path>
                        <path d="M18.4166667,2.16666667 L17.3333333,2.16666667 C17.3333333,3.35833333 16.3583333,4.33333333 15.1666667,4.33333333 L14.625,4.33333333 L8.66666667,4.33333333 C7.475,4.33333333 6.5,3.35833333 6.5,2.16666667 L5.41666667,2.16666667 C3.62916667,2.16666667 2.16666667,3.62916667 2.16666667,5.41666667 L2.16666667,14.3920833 L2.16666667,31.9171667 L2.16666667,33.5833333 C2.16666667,35.3708333 3.62916667,36.8333333 5.41666667,36.8333333 L18.4166667,36.8333333 C20.2041667,36.8333333 21.6666667,35.3708333 21.6666667,33.5833333 L21.6666667,19.0601667 L21.6666667,5.41666667 C21.6666667,3.62916667 20.2041667,2.16666667 18.4166667,2.16666667" id="Fill-5" fill="#5BD35B"></path>
                        <path d="M21.6666667,13.659425 L21.6666667,5.41634167 C21.6666667,3.62884167 20.2041667,2.16634167 18.4166667,2.16634167 L17.3333333,2.16634167 C17.3333333,3.35800833 16.3583333,4.33300833 15.1666667,4.33300833 L14.625,4.33300833 L8.66666667,4.33300833 C7.475,4.33300833 6.5,3.35800833 6.5,2.16634167 L5.41666667,2.16634167 C3.62916667,2.16634167 2.16666667,3.62884167 2.16666667,5.41634167 L2.16666667,14.3917583 L2.16666667,23.6185083 C3.05391667,23.7452583 3.95308333,23.8330083 4.875,23.8330083 C12.1734167,23.8330083 18.4979167,19.7033417 21.6666667,13.659425" id="Fill-7" fill="#A7EDA7"></path>
                    </g>
                </g>
            </g>
        </g>
    </g>
</svg>