<?xml version="1.0" encoding="UTF-8"?>
<svg width="22px" height="20px" viewBox="0 0 22 20" version="1.1" xmlns="http://www.w3.org/2000/svg" xmlns:xlink="http://www.w3.org/1999/xlink">
    <!-- Generator: Sketch 51.2 (57519) - http://www.bohemiancoding.com/sketch -->
    <title>Group 4</title>
    <desc>Created with Sketch.</desc>
    <defs></defs>
    <g id="Drawer" stroke="none" stroke-width="1" fill="none" fill-rule="evenodd">
        <g id="[UNIFY-Project]-New-Drawer---BUYER" transform="translate(-277.000000, -21.000000)" fill="#BDBDBD">
            <g id="beranda" transform="translate(272.000000, 16.000000)">
                <g id="Group-4" transform="translate(5.000000, 5.000000)">
                    <path d="M21.71,10.29 L20.29,11.71 L11,2.42 L1.71,11.71 L0.29,10.29 L9.58,1 L9.586,0.994 C10.367,0.213 11.633,0.213 12.414,0.994 L12.42,1 L21.71,10.29 Z" id="Fill-1"></path>
                    <path d="M11,1 L3,9 L3,18 C3,19.105 3.895,20 5,20 L8,20 L8,16 C8,14.895 8.895,14 10,14 L12,14 C13.105,14 14,14.895 14,16 L14,20 L17,20 C18.105,20 19,19.105 19,18 L19,9 L11,1 Z" id="Fill-3"></path>
                </g>
            </g>
        </g>
    </g>
</svg>