<?xml version="1.0" encoding="UTF-8"?>
<svg width="38px" height="38px" viewBox="0 0 38 38" version="1.1" xmlns="http://www.w3.org/2000/svg" xmlns:xlink="http://www.w3.org/1999/xlink">
    <!-- Generator: Sketch 51.2 (57519) - http://www.bohemiancoding.com/sketch -->
    <title>G</title>
    <desc>Created with Sketch.</desc>
    <defs></defs>
    <g id="Drawer" stroke="none" stroke-width="1" fill="none" fill-rule="evenodd">
        <g id="[UNIFY-Project]-New-Drawer---BEFORE-LOGIN" transform="translate(-42.000000, -132.000000)">
            <g id="Login-ROunded" transform="translate(24.000000, 115.000000)">
                <g id="Gmail">
                    <g id="G" transform="translate(18.000000, 17.000000)">
                        <path d="M8.41719,22.951886 L7.09517,27.887326 L2.26309,27.989546 C0.81909,25.310926 -0.00019,22.246606 -0.00019,18.990006 C-0.00019,15.840946 0.76589,12.871626 2.12325,10.256846 L2.12439,10.256846 L6.42637,11.045346 L8.31079,15.321486 C7.91635,16.471366 7.70127,17.705606 7.70127,18.990006 C7.70127,20.384226 7.95397,21.719546 8.41719,22.951886" id="Fill-1" fill="#FBBB00"></path>
                        <path d="M37.648348,15.442478 C37.866468,16.591218 37.980088,17.777578 37.980088,18.990158 C37.980088,20.349798 37.837208,21.675998 37.564748,22.955078 C36.640588,27.307978 34.224928,31.109118 30.878648,33.799138 L30.877508,33.797998 L25.459088,33.521738 L24.692248,28.734498 C26.912588,27.432238 28.648048,25.394678 29.561948,22.955078 L19.407588,22.955078 L19.407588,15.442478 L29.710148,15.442478 L37.648348,15.442478 Z" id="Fill-4" fill="#518EF8"></path>
                        <path d="M30.87766,33.79815 L30.8788,33.79929 C27.62448,36.41521 23.49046,37.98005 18.99012,37.98005 C11.75834,37.98005 5.47048,33.93799 2.26328,27.98947 L8.41738,22.95181 C10.02098,27.23213 14.14968,30.27859 18.99012,30.27859 C21.07062,30.27859 23.01964,29.71619 24.6924,28.73465 L30.87766,33.79815 Z" id="Fill-6" fill="#28B446"></path>
                        <path d="M31.11136,4.371862 L24.95954,9.408382 C23.22826,8.326522 21.18234,7.701422 18.99012,7.701422 C14.04024,7.701422 9.83402,10.888102 8.3106,15.321562 L2.1242,10.256542 L2.12344,10.256542 C5.2839,4.163242 11.6508,-3.8e-05 18.99012,-3.8e-05 C23.59762,-3.8e-05 27.82246,1.641182 31.11136,4.371862" id="Fill-8" fill="#F14336"></path>
                    </g>
                </g>
            </g>
        </g>
    </g>
</svg>