<svg height="24" viewBox="0 0 24 24" width="24" xmlns="http://www.w3.org/2000/svg" xmlns:xlink="http://www.w3.org/1999/xlink"><defs><path id="a" d="m14 12 5.544-5.544c.583-.583.61-1.511.06-2.06-.549-.55-1.477-.523-2.06.06l-5.544 5.544-5.544-5.544c-.583-.583-1.511-.61-2.06-.06-.55.549-.523 1.477.06 2.06l5.544 5.544-5.544 5.544c-.583.583-.61 1.511-.06 2.06.549.55 1.477.523 2.06-.06l5.544-5.544 5.544 5.544c.583.583 1.511.61 2.06.06.55-.549.523-1.477-.06-2.06z"/><mask id="b" fill="#fff"><use fill="#fff" fill-rule="evenodd" xlink:href="#a"/></mask></defs><g fill="none" fill-rule="evenodd"><path d="m0 0h24v24h-24z"/><use fill="#9fa6b0" xlink:href="#a"/><g fill="#6c727c" fill-rule="nonzero" mask="url(#b)"><path d="m1 1h22v22h-22z"/></g></g></svg>