<?xml version="1.0" encoding="UTF-8"?>
<svg width="22px" height="22px" viewBox="0 0 22 22" version="1.1" xmlns="http://www.w3.org/2000/svg" xmlns:xlink="http://www.w3.org/1999/xlink">
    <!-- Generator: Sketch 62 (91390) - https://sketch.com -->
    <title>icon-tokocare-black copy@1x</title>
    <desc>Created with Sketch.</desc>
    <g id="icon-tokocare-black-copy" stroke="none" stroke-width="1" fill="none" fill-rule="evenodd">
        <g id="Group-18" transform="translate(0.916667, 1.833333)" fill="#9FA6B0" fill-rule="nonzero">
            <path d="M10.0833333,-4.16851738e-13 C14.4659382,-4.16851738e-13 18.1474077,3.00007399 19.1862358,7.0587161 C19.733715,7.44056635 20.1058601,8.05549314 20.1598737,8.75967758 L20.1666667,8.9375 L20.1666667,10.7708333 C20.1666667,11.7005893 19.6133558,12.5007944 18.8179656,12.8602168 C18.1588593,14.5234858 17.0333621,15.9708397 15.5731104,17.0224927 C15.5799302,17.075461 15.5833333,17.1310855 15.5833333,17.1875 C15.5833333,17.9465 14.9673333,18.5625 14.2083333,18.5625 C13.4493333,18.5625 12.8333333,17.9465 12.8333333,17.1875 C12.8333333,16.4285 13.4493333,15.8125 14.2083333,15.8125 C14.3990624,15.8125 14.5807616,15.8513983 14.7459251,15.9216894 C15.5728057,15.3321704 16.2747185,14.5937069 16.8196795,13.7512981 L16.9583333,13.75 L16.9589351,13.5280917 C17.0575897,13.3640313 17.1504339,13.1963332 17.2372458,13.0253095 C17.0962506,12.9653216 16.9920462,12.8375127 16.9651509,12.6832884 L16.9583333,12.6041667 L16.9583333,7.10416667 C16.9583333,6.87927778 17.120572,6.69205144 17.334315,6.65322199 L17.4166667,6.64583333 L17.6201972,6.64528561 C16.4977702,3.57015486 13.5470893,1.375 10.0833333,1.375 C6.61957742,1.375 3.66889647,3.57015486 2.54646947,6.64528561 L2.75,6.64583333 C3.003,6.64583333 3.20833333,6.85116667 3.20833333,7.10416667 L3.20833333,12.6041667 C3.20833333,12.8571667 3.003,13.0625 2.75,13.0625 L2.29166667,13.0625 C1.02575,13.0625 0,12.03675 0,10.7708333 L0,8.9375 C0,8.15959953 0.387328417,7.47238721 0.979701057,7.05814724 C2.01925901,3.00007399 5.70072846,-4.16851738e-13 10.0833333,-4.16851738e-13 Z M10.0833333,2.97916667 C12.7835047,2.97916667 15.0941302,4.64697645 16.0412556,7.00864173 L16.0412752,11.7829761 C15.0941621,14.1446672 12.7835233,15.8125 10.0833333,15.8125 C7.38200482,15.8125 5.07055612,14.1432605 4.12419417,11.7799884 L4.12421959,7.01161482 C5.0705975,4.6483763 7.382029,2.97916667 10.0833333,2.97916667 Z M12.5763,10.544325 C11.9254667,11.286825 11.0454667,11.6901583 10.0829667,11.6901583 C9.12138333,11.6901583 8.24138333,11.286825 7.59055,10.544325 C7.34213333,10.2592417 6.92046667,10.2317417 6.64546667,10.4884083 C6.36221667,10.7459917 6.34296667,11.1759083 6.59138333,11.4609917 C7.48055,12.477575 8.7538,13.0651583 10.0829667,13.0651583 C11.41305,13.0651583 12.6863,12.477575 13.5754667,11.4609917 C13.8238833,11.1759083 13.8046333,10.7459917 13.5204667,10.4884083 C13.2463833,10.2317417 12.8247167,10.2592417 12.5763,10.544325 Z" id="Combined-Shape"></path>
        </g>
    </g>
</svg>