<?xml version="1.0" encoding="UTF-8"?>
<svg width="19px" height="19px" viewBox="0 0 19 19" version="1.1" xmlns="http://www.w3.org/2000/svg" xmlns:xlink="http://www.w3.org/1999/xlink">
    <!-- Generator: Sketch 51.2 (57519) - http://www.bohemiancoding.com/sketch -->
    <title>promo</title>
    <desc>Created with Sketch.</desc>
    <defs>
        <polygon id="path-1" points="0.570200134 0.0802105263 17.1757895 0.0802105263 17.1757895 15.7894737 0.570200134 15.7894737"></polygon>
        <polygon id="path-3" points="0.000100099508 0.344210526 14.6277895 0.344210526 14.6277895 14.9091579 0.000100099508 14.9091579"></polygon>
    </defs>
    <g id="Drawer" stroke="none" stroke-width="1" fill="none" fill-rule="evenodd">
        <g id="[UNIFY-Project]-New-Drawer---BUYER" transform="translate(-16.000000, -233.000000)">
            <g id="Lihat-semua" transform="translate(16.000000, 232.000000)">
                <g id="promo">
                    <g id="Group-3" transform="translate(1.052632, 3.866632)">
                        <mask id="mask-2" fill="white">
                            <use xlink:href="#path-1"></use>
                        </mask>
                        <g id="Clip-2"></g>
                        <path d="M16.9417895,7.51494737 L16.6596842,7.12968421 C16.3544211,6.71073684 16.3470526,6.14231579 16.6481053,5.716 L16.9228421,5.32652632 C17.3417895,4.73284211 17.1470526,3.90547368 16.5028421,3.55810526 L16.0838947,3.33284211 C15.626,3.08968421 15.3744211,2.57810526 15.4628421,2.06442105 L15.5428421,1.59494737 C15.6649474,0.878105263 15.1270526,0.214947368 14.3986316,0.184421053 L13.9228421,0.165473684 C13.786,0.159157895 13.6554737,0.128631579 13.5323158,0.0802105263 C13.5544211,0.357052632 13.5754737,0.633894737 13.5754737,0.916 C13.5754737,1.12442105 13.5554737,1.32757895 13.5438947,1.53284211 C14.7323158,2.84652632 15.4628421,4.58126316 15.4628421,6.48757895 C15.4628421,10.5686316 12.1428421,13.8886316 8.06178947,13.8886316 C6.03547368,13.8886316 4.19757895,13.0686316 2.85968421,11.7444211 C2.81968421,11.7454737 2.78073684,11.7507368 2.74073684,11.7507368 C1.99757895,11.7507368 1.27231579,11.6749474 0.571263158,11.5328421 C0.543894737,12.1875789 1.04810526,12.7623158 1.72389474,12.7907368 L2.20073684,12.8096842 C2.71968421,12.8328421 3.16915789,13.1833684 3.31442105,13.6823158 L3.44705263,14.1402105 C3.64915789,14.8412632 4.41968421,15.2033684 5.09021053,14.9138947 L5.52810526,14.7275789 C6.00494737,14.5212632 6.56178947,14.6433684 6.90810526,15.0317895 L7.22494737,15.3865263 C7.71231579,15.9286316 8.56284211,15.9244211 9.03968421,15.3717895 L9.35231579,15.0128421 C9.69547368,14.6202105 10.2481053,14.4907368 10.7281053,14.6896842 L11.1702105,14.8717895 C11.8449474,15.1507368 12.6070526,14.7728421 12.8017895,14.0717895 L12.9281053,13.6107368 C13.0649474,13.1075789 13.5070526,12.7486316 14.0249474,12.7223158 L14.5017895,12.696 C15.2302105,12.6538947 15.7565263,11.9823158 15.6228421,11.2665263 L15.5354737,10.7970526 C15.4396842,10.2865263 15.6838947,9.77178947 16.1375789,9.52021053 L16.5533684,9.28757895 C17.1891579,8.93705263 17.3723158,8.10547368 16.9417895,7.51494737" id="Fill-1" fill="#FFFFFF" mask="url(#mask-2)"></path>
                    </g>
                    <path d="M14.3266316,7.28115789 C14.0055789,8.64115789 13.4076842,9.88642105 12.6287368,10.9937895 C12.7318947,11.2053684 12.7950526,11.4390526 12.7950526,11.6906316 C12.7950526,12.5685263 12.0855789,13.2790526 11.2076842,13.2790526 C10.9950526,13.2790526 10.794,13.2358947 10.6087368,13.1601053 C9.24136842,14.2758947 7.61189474,15.0843158 5.80557895,15.4232632 C6.75821053,16.0474737 7.89294737,16.4127368 9.114,16.4127368 C12.4550526,16.4127368 15.1729474,13.6948421 15.1729474,10.3548421 C15.1729474,9.23168421 14.8603158,8.18326316 14.3266316,7.28115789" id="Fill-4" fill="#FFFFFF"></path>
                    <path d="M6.78231579,13.1656842 C6.61810526,13.0298947 6.59494737,12.7846316 6.73073684,12.6204211 L10.8981053,7.60147368 C11.0328421,7.43621053 11.2781053,7.41410526 11.4433684,7.54989474 C11.6075789,7.68463158 11.6307368,7.92989474 11.4949474,8.09515789 L7.32757895,13.1141053 C7.19178947,13.2783158 6.94652632,13.3014737 6.78231579,13.1656842 M5.43284211,9.01831579 C5.43284211,8.14042105 6.14336842,7.42989474 7.02126316,7.42989474 C7.89915789,7.42989474 8.60968421,8.14042105 8.60968421,9.01831579 C8.60968421,9.89621053 7.89915789,10.6056842 7.02126316,10.6056842 C6.14336842,10.6056842 5.43284211,9.89305263 5.43284211,9.01831579 M9.61915789,11.6909474 C9.61915789,10.8130526 10.3296842,10.1025263 11.2075789,10.1025263 C11.8338947,10.1025263 12.3696842,10.4677895 12.6286316,10.9941053 C13.4075789,9.88673684 14.0054737,8.64147368 14.3265263,7.28147368 C13.2707368,5.49726316 11.3328421,4.29515789 9.11389474,4.29515789 C5.77389474,4.29515789 3.056,7.01305263 3.056,10.3541053 C3.056,12.4741053 4.15178947,14.3404211 5.80547368,15.4235789 C7.61178947,15.0835789 9.24126316,14.2762105 10.6096842,13.1604211 C10.0286316,12.9246316 9.61915789,12.3562105 9.61915789,11.6909474" id="Fill-6" fill="#F1F1F1"></path>
                    <path d="M7.68284211,9.018 C7.68284211,8.65484211 7.38810526,8.35905263 7.02389474,8.35905263 C6.66073684,8.35905263 6.366,8.65484211 6.366,9.018 C6.366,9.38115789 6.66073684,9.67694737 7.02389474,9.67694737 C7.38810526,9.67694737 7.68284211,9.38115789 7.68284211,9.018" id="Fill-8" fill="#F1F1F1"></path>
                    <path d="M11.8658947,11.6905263 C11.8658947,11.3273684 11.5711579,11.0315789 11.2069474,11.0315789 C10.8437895,11.0315789 10.5490526,11.3273684 10.5490526,11.6905263 C10.5490526,12.0547368 10.8437895,12.3484211 11.2069474,12.3484211 C11.5711579,12.3484211 11.8658947,12.0547368 11.8658947,11.6905263" id="Fill-10" fill="#F1F1F1"></path>
                    <g id="Group-14" transform="translate(0.000000, 0.708737)">
                        <mask id="mask-4" fill="white">
                            <use xlink:href="#path-3"></use>
                        </mask>
                        <g id="Clip-13"></g>
                        <path d="M3.912,14.9028421 C2.55515789,13.5607368 1.71305263,11.6996842 1.71305263,9.646 C1.71305263,5.56494737 5.03305263,2.24389474 9.11410526,2.24389474 C11.2888421,2.24389474 13.2414737,3.19231579 14.5962105,4.69126316 C14.6077895,4.486 14.6277895,4.28284211 14.6277895,4.07442105 C14.6277895,3.79231579 14.6067368,3.51442105 14.5856842,3.23757895 C14.2425263,3.10284211 13.9688421,2.81863158 13.8625263,2.45021053 L13.7288421,1.99336842 C13.5267368,1.29126316 12.7562105,0.929157895 12.0856842,1.21968421 L11.6477895,1.406 C11.1709474,1.61231579 10.6141053,1.49021053 10.2677895,1.10073684 L9.95094737,0.746 C9.46673684,0.204947368 8.61726316,0.209157895 8.13621053,0.761789474 L7.82357895,1.11968421 C7.48042105,1.51231579 6.92778947,1.64284211 6.44778947,1.44389474 L6.00568421,1.26073684 C5.33094737,0.982842105 4.56884211,1.36073684 4.37410526,2.06178947 L4.24884211,2.52284211 C4.11094737,3.026 3.66884211,3.38494737 3.14989474,3.41126316 L2.67410526,3.43757895 C1.94568421,3.47968421 1.41936842,4.15021053 1.55305263,4.86705263 L1.64042105,5.33652632 C1.73621053,5.84705263 1.492,6.36178947 1.03831579,6.61336842 L0.622526316,6.846 C-0.0132631579,7.19968421 -0.196421053,8.03126316 0.234105263,8.61863158 L0.516210526,9.00284211 C0.821473684,9.42284211 0.828842105,9.99021053 0.527789474,10.4175789 L0.253052632,10.806 C-0.165894737,11.4007368 0.0288421053,12.2281053 0.673052632,12.5754737 L1.092,12.7996842 C1.54989474,13.0438947 1.80042105,13.5544211 1.71305263,14.0691579 L1.63305263,14.5386316 C1.62463158,14.5902105 1.62568421,14.6396842 1.62357895,14.6912632 C2.32463158,14.8333684 3.04989474,14.9091579 3.79305263,14.9091579 C3.83305263,14.9091579 3.872,14.9028421 3.912,14.9028421" id="Fill-12" fill="#F1F1F1" mask="url(#mask-4)"></path>
                    </g>
                </g>
            </g>
        </g>
    </g>
</svg>