<svg width="28" height="28" xmlns="http://www.w3.org/2000/svg"><g fill="none" fill-rule="evenodd"><circle cx="13" cy="13" r="13" transform="translate(1 1)" fill="#000" fill-rule="nonzero"/><circle stroke="#FFC200" fill="#F8F8F8" cx="14" cy="14" r="13.5"/><g><path d="M12.306 18.501c0-.11-.016-.45-.036-.754-.018-.303-.355-.755-.747-1.003 0 0-2.352-1.488-2.352-4.123a4.949 4.949 0 0 1 9.898 0c0 2.635-2.351 4.123-2.351 4.123-.392.248-.728.7-.748 1.003-.02.303-.034.629-.034.722v1.015c0 .465-.38.844-.844.844H13.15c-.464 0-.844-.365-.844-.811V18.5z" stroke="#FFC200" fill="#FFC200" fill-rule="nonzero" stroke-linecap="round" stroke-linejoin="round"/><path d="M12.306 18.963h3.56"/><path d="M11.556 19.713h5.06" stroke="#FFF" stroke-linecap="round" stroke-linejoin="round"/><path d="M12.306 17.662h3.56"/><path d="M11.556 17.662h5.06" stroke="#FFF" stroke-linecap="round" stroke-linejoin="round"/><path d="M14.12 17.502v-3.54"/><path d="M14.12 17.502v-3.54M13.193 13.033a.928.928 0 1 0 1.856 0 .928.928 0 0 0-1.856 0z" stroke="#FFF" stroke-linecap="round" stroke-linejoin="round"/></g></g></svg>